<?xml version="1.0" encoding="UTF-8"?>
<!DOCTYPE svg PUBLIC "-//W3C//DTD SVG 1.1//EN" "http://www.w3.org/Graphics/SVG/1.1/DTD/svg11.dtd">
<!-- Creator: CorelDRAW X8 -->
<svg xmlns="http://www.w3.org/2000/svg" xml:space="preserve" width="281.093mm" height="108.406mm" version="1.1" style="shape-rendering:geometricPrecision; text-rendering:geometricPrecision; image-rendering:optimizeQuality; fill-rule:evenodd; clip-rule:evenodd"
viewBox="0 0 2810930 1084058"
 xmlns:xlink="http://www.w3.org/1999/xlink">

 <g id="Слой_x0020_1">
  <metadata id="CorelCorpID_0Corel-Layer"/>
  <polygon class="fil0" fill="#EF7F1A" points="0,441681 823169,104581 495787,1084058 "/>
  <path class="fil1" fill="black" d="M289868 817254c15980,-6540 32535,-12898 49796,-18960 51600,28496 89677,55218 139854,69982 17193,-10770 23313,-17748 33418,-29454 10105,-11707 13162,-22308 18629,-33492 16205,8574 32618,16716 49187,24528l6911 -20680c-19291,-10199 -17924,-13089 -25835,-16843 -10508,-4983 -17423,1045 -25671,-10799 -2260,-3246 -5513,-14126 -5485,-26246 14,-6411 269,-17379 166,-28622 -212,-23017 563,-29039 4590,-38948 2595,-6382 4896,-13498 11777,-20121 4051,-3900 8132,-6927 12620,-11487 22825,-23194 47885,-62712 55595,-126629 1251,-10379 6239,-62619 6491,-74321 26230,15682 39888,981 48713,-21754 2594,-6680 4555,-13264 4694,-19914 414,-19744 -10166,-40536 -25205,-40420 -5455,42 -11862,1804 -19258,5991 -4217,-61248 -79,-116797 -245,-152887 -404,-87755 -16708,-130360 -48655,-164020 -29205,-30770 -83575,-56806 -154286,-61678 -18746,-1290 -41158,91 -59469,3310 -60048,10556 -105701,40680 -133385,114159 -8452,22435 -13131,50471 -13463,79845 -584,51591 1262,110449 -1710,180764 -17927,-9490 -27941,-5960 -35055,4864 -16886,25697 -6343,48012 3653,65001 9299,15805 26179,15573 37868,8324 5798,78502 11989,127316 32918,160528 26646,42284 61936,60627 69123,68104 4044,11253 3337,33388 3250,53477 -34,7629 -381,17761 -5635,23105 -6793,6908 -15716,1521 -34789,11145 -8110,4091 -15130,9987 -22662,16220l21555 27928z"/>
  <path class="fil2" fill="#FDE4C8" d="M612320 432028c10877,2009 21666,8405 31837,5658 7524,-2032 14868,-9524 15741,-27798 432,-9069 -1701,-16221 -6962,-19892 -7646,-5335 -21915,-2123 -29895,1486 -4514,2041 -9409,5402 -13023,5406 -3198,3 -7373,-3130 -6713,-6689 4299,-23185 3759,-55359 3683,-63195 -349,-36062 -1365,-92873 -19219,-123432 -5785,-9902 -22928,-33309 -33351,-38995 -647,6757 -1555,11887 -4394,18658 -2513,5997 -6397,11318 -9357,15150 -12139,-3432 -25106,-7779 -38916,-10814 -30349,-6670 -70176,-14179 -104315,-24756 -12671,-3925 -24624,-8459 -35438,-12967 -9892,-4123 -15905,-8356 -21928,-10381 -10530,-3541 -18651,-1874 -32328,9314 -15372,12574 -30677,37104 -39752,62302 -9339,25931 -10127,47224 -11823,87011 -1697,39786 4065,89282 131,101308 -1558,4763 -4422,6395 -8612,6253 -3053,-103 -5160,-2055 -9084,-4125 -4867,-2568 -10168,-5484 -15311,-5927 -18672,-2236 -23510,13382 -18707,29121 3953,12950 12013,15941 22646,14980 5392,-487 12363,-1260 17375,-2670 9936,-2796 13098,-2936 15714,859 2836,4115 2390,17243 2765,23021 4320,66657 4096,116012 41513,160904 27312,35027 85122,62357 141397,60981 27171,-665 50116,-5622 76838,-24443 42756,-32046 67669,-77438 73507,-130461 1614,-14657 4644,-56779 6014,-85336 296,-6173 1721,-12054 9967,-10531z"/>
  <path class="fil3" fill="#A08C71" d="M509017 151124c-4031,-23250 -11573,-33323 -18990,-45373 23654,13809 34259,35984 40362,49232 11523,-30807 -5787,-65437 -15767,-81360 12312,9512 26389,29101 32943,46476 1034,2476 1508,4011 2168,4958 1609,2312 3037,1053 11336,7012 14851,10033 28292,24048 38250,38242 6890,9822 8128,14684 10961,13832 2834,-851 -533,-21350 -2666,-33253 -2288,-12766 -9319,-32096 -13382,-40208 -12381,-24725 -31625,-45295 -57529,-57617 -32442,-15431 -74153,-23545 -110633,-23501 -14440,17 -28322,115 -45656,3624 -17334,3509 -48821,17951 -57592,27900 -16838,19100 26120,40591 38768,47378 27492,15142 48152,19892 75627,26707 23901,5929 48617,10796 71800,15951z"/>
  <path class="fil2" fill="#FDE4C8" d="M510755 703788l-37681 20832c-13446,6951 -27058,13715 -40431,20750 -12142,6387 -30481,15209 -26977,34047 2576,13846 17658,30335 24603,36732 9109,8390 23505,16858 37759,22248 5812,2199 5989,3179 10285,-55 2824,-2126 5804,-4803 8140,-7267 18311,-19307 23646,-37446 24485,-66745 468,-16352 1582,-45146 -183,-60542z"/>
  <path class="fil1" fill="black" d="M500141 245257c-5447,2907 -6879,5768 -8614,12065 -1822,6610 -3603,13031 2346,14843 4661,1419 32716,-2655 37359,-4479 8920,-3503 19277,-14287 6421,-20392 -7635,-3625 -29443,-6342 -37512,-2037z"/>
  <path class="fil1" fill="black" d="M329577 255104c-22451,4787 -34270,12204 -35091,18131 -966,6982 10499,12327 23511,11429 6021,-415 12228,-1726 18287,-2594 7752,-1276 10821,-765 13031,-3793 641,-877 1152,-1891 1146,-3403 -12,-3260 -3755,-9274 -6354,-12881 -3979,-5522 -8046,-8187 -14530,-6889z"/>
  <path class="fil1" fill="black" d="M481323 330796c0,1789 2827,4954 7863,4640 2253,-140 4718,-1347 6613,-2085 -339,1284 -521,2631 -521,4021 0,8665 7024,15689 15689,15689 8666,0 15689,-7024 15689,-15689 0,-428 -17,-853 -51,-1273l2 12c6003,1399 9251,6211 18455,2635 3415,-1443 6022,-2761 6306,-6183 -8129,-2781 -10031,-5938 -15198,-11401 -8556,-8010 -18110,-9896 -29004,-7427 -7045,1596 -15056,5019 -20736,9887 -1508,1329 -5107,4918 -5107,7174z"/>
  <path class="fil1" fill="black" d="M371712 330796c0,1789 -2827,4954 -7863,4640 -2254,-140 -4718,-1347 -6613,-2085 339,1284 520,2631 520,4021 0,8665 -7024,15689 -15689,15689 -8665,0 -15689,-7024 -15689,-15689 0,-428 18,-853 51,-1273l-2 12c-6003,1399 -9251,6211 -18455,2635 -3414,-1443 -6021,-2761 -6306,-6183 8129,-2781 10032,-5938 15198,-11401 8557,-8010 18111,-9896 29004,-7427 7045,1596 15057,5019 20736,9887 1508,1329 5108,4918 5108,7174z"/>
  <path class="fil4" fill="#F08254" d="M481673 405977c0,8839 3210,16450 10294,22134 15251,11214 31864,9974 46316,-903 14323,-10929 16691,-30180 -1947,-30413 -12950,0 -16312,2732 -22549,2732 -7332,0 -11236,-3416 -21183,-3416 -5341,0 -10931,4834 -10931,9866z"/>
  <path class="fil4" fill="#F08254" d="M373605 405977c0,8839 -3210,16450 -10294,22134 -15251,11214 -31864,9974 -46316,-903 -14323,-10929 -16692,-30180 1947,-30413 12950,0 16312,2732 22549,2732 7332,0 11236,-3416 21182,-3416 5342,0 10932,4834 10932,9866z"/>
  <path class="fil1" fill="black" d="M377303 550195c8653,17708 27940,31275 48305,31275 3973,0 7094,-598 10269,-1347 25833,-6102 46545,-31983 39085,-35911 -3429,-1806 -10178,3580 -13332,5168 -3872,1948 -7747,3703 -11976,5107 -8419,2793 -17394,4607 -26276,4620 -17563,25 -29220,-6576 -41929,-17674 -3579,-3150 -5552,-3070 -6352,-2027 -1367,1783 492,7280 2206,10789z"/>
  <path class="fil1" fill="black" d="M220312 405511c4520,0 10965,4363 12996,6680 856,978 659,945 -448,993 -1161,51 -2070,13 -2557,-74 -4098,-738 -11174,-4080 -13568,2325 -922,2465 -577,5021 -2647,4505 -1490,-370 -1820,-2481 -1581,-5061 466,-5005 2683,-9368 7805,-9368z"/>
  <path class="fil1" fill="black" d="M620015 406119c-733,452 -2448,2225 -689,2724 1140,323 3771,-281 3978,-318 4099,-737 14414,-3192 18540,4245 1276,2298 2313,6704 4081,6256 1486,-376 1610,-3165 1372,-5745 -646,-6953 -4214,-10730 -9666,-12031 -5351,-1276 -10246,314 -17616,4869z"/>
  <path class="fil1" fill="black" d="M424498 638896c2446,0 4690,678 6443,1805l18 12c9410,5572 6039,19997 -6245,26745 1618,-6568 1380,-11643 -3411,-13050 -4044,-1048 -6962,-4034 -6962,-7555 0,-4394 4547,-7957 10157,-7957z"/>
  <path class="fil1" fill="black" d="M456720 447240c1186,732 1635,2313 1305,4028 -32,162 -70,326 -115,490 -5599,24198 -36794,33171 -53688,20928 -8937,-6477 -12668,-18673 -10451,-31721 51,-562 154,-1100 301,-1605l1 -3c665,-2276 2239,-3876 4076,-3876 1597,0 2994,1209 3770,3020l1 0 5 12c9367,22581 34875,23500 50005,9894 137,-135 278,-263 422,-381l6 -6c1424,-1177 3126,-1543 4362,-780z"/>
  <path class="fil5" fill="#E31E24" d="M1052052 349921c2773,-2777 7281,-4398 13520,-4861 6241,-464 12250,116 18028,1736 5778,1621 10516,4168 14214,7640 3698,3472 4621,7987 2773,13543 -11093,29631 -22765,60884 -35015,93756 -12249,32873 -26000,63198 -41254,90978 -15254,27779 -32704,50698 -52349,68755 -19644,18057 -42180,27085 -67602,27085 -20801,0 -36054,-3820 -45762,-11459 -9707,-7639 -16178,-16437 -19415,-26391 -3235,-9954 -4390,-20140 -3466,-30557 924,-10418 1849,-18404 2773,-23961 925,-6944 4276,-11690 10054,-14237 5779,-2546 11557,-3240 17334,-2083 5778,1158 10747,3936 14908,8335 4159,4397 5315,9838 3466,16320 -3698,13426 -3351,23613 1041,30557 4392,6945 10515,10417 18374,10417 13867,0 27040,-6828 39521,-20487 12480,-13658 24268,-31021 35361,-52087 11094,-21067 21610,-44448 31548,-70144 9938,-25696 19068,-50582 27387,-74657 -12018,463 -24613,809 -37789,1041 -13173,232 -25538,463 -37093,695 -11556,231 -21263,231 -29122,0 -7858,-232 -12249,-579 -13173,-1041 -1386,-927 -2542,-3474 -3466,-7641 -925,-4166 -1503,-8681 -1734,-13542 -232,-4861 0,-9491 693,-13889 693,-4399 2196,-7293 4507,-8682 924,-464 6009,-694 15253,-694 9245,0 20570,346 33975,1041 13405,694 27503,1389 42295,2083 14792,695 28197,1505 40215,2431zm98457 106952c9708,0 17796,1968 24267,5903 6471,3936 11441,8914 14907,14932 3467,6019 5548,12732 6242,20140 693,7409 114,14585 -1734,21530 461,926 693,2546 693,4861 -1386,17593 -5085,32988 -11093,46183 -6010,13196 -13174,24307 -21495,33337 -8321,9028 -17449,15857 -27388,20487 -9937,4630 -19529,6944 -28775,6944 -17103,0 -29813,-4282 -38133,-12848 -8321,-8565 -13289,-19330 -14908,-32293 -1618,-12964 -116,-26970 4507,-42017 4623,-15048 11441,-29053 20454,-42017 9014,-12964 19761,-23729 32242,-32294 12480,-8565 25885,-12848 40214,-12848zm-36747 143065c5546,0 11093,-2315 16639,-6944 5548,-4631 10401,-10186 14562,-16668 4159,-6482 7396,-13543 9705,-21182 2312,-7640 3237,-14701 2776,-21183 -3699,-4629 -4392,-9028 -2081,-13194 5084,-5556 7973,-11228 8667,-17015 693,-5788 -1040,-8682 -5200,-8682 -5085,0 -10748,2546 -16988,7639 -6241,5094 -12249,11576 -18027,19447 -5778,7870 -10747,16320 -14907,25348 -4161,9029 -7050,17478 -8667,25349 -1619,7871 -1503,14353 346,19446 1849,5094 6240,7639 13175,7639zm227421 -138203c15715,0 25885,5208 30507,15626 4622,10417 5779,23497 3467,39239 -2311,15742 -6818,32641 -13521,50698 -6703,18057 -13751,34724 -21146,50003 -2312,5556 -6703,9260 -13176,11111 -6471,1853 -12826,2432 -19066,1737 -6240,-694 -11440,-2662 -15601,-5903 -4159,-3241 -4853,-7409 -2080,-12501 2774,-5556 6702,-14006 11787,-25349 5084,-11343 9592,-22686 13521,-34030 3930,-11343 6587,-21413 7973,-30210 1387,-8798 -232,-13196 -4853,-13196 -6009,0 -12943,4282 -20801,12848 -7857,8565 -15716,18867 -23574,30905 -7858,12038 -15254,24423 -22188,37155 -6933,12732 -12479,23266 -16640,31600 -1849,3704 -4970,6134 -9360,7292 -4392,1157 -8899,1157 -13520,0 -4623,-1158 -8437,-3357 -11441,-6598 -3005,-3240 -3814,-7408 -2427,-12501 1386,-5556 3814,-15278 7280,-29169 3467,-13889 8783,-31367 15947,-52433 7165,-21067 16525,-45721 28082,-73964 11555,-28242 25885,-59726 42988,-94451 1848,-3241 5546,-5440 11093,-6597 5547,-1158 11094,-1042 16641,347 5546,1389 9938,3820 13173,7292 3237,3472 3237,8218 0,14237 -6934,12038 -16178,30211 -27734,54518 -11555,24307 -22880,51045 -33974,80213 8783,-13427 18951,-24770 30507,-34030 11557,-9259 24267,-13889 38136,-13889zm174726 0c15717,0 25885,5208 30508,15626 4621,10417 5778,23497 3466,39239 -2311,15742 -6818,32641 -13521,50698 -6703,18057 -13751,34724 -21146,50003 -2312,5556 -6587,9260 -12828,11111 -6240,1853 -12249,2432 -18027,1737 -5779,-694 -10516,-2662 -14214,-5903 -3698,-3241 -4159,-7409 -1386,-12501 2773,-5556 6587,-14006 11440,-25349 4854,-11343 9245,-22686 13173,-34030 3930,-11343 6356,-21413 7281,-30210 924,-8798 -1388,-13196 -6934,-13196 -6009,0 -12711,4052 -20108,12153 -7396,8103 -14907,17941 -22533,29517 -7628,11575 -14792,23612 -21494,36114 -6703,12500 -12365,22917 -16987,31252 -463,462 -695,926 -695,1389 -1386,4166 -4275,7060 -8665,8681 -4392,1619 -8899,1967 -13521,1041 -4623,-925 -8667,-3010 -12134,-6250 -3468,-3241 -4508,-7639 -3120,-13196 2310,-11574 6933,-28937 13867,-52087 6933,-23149 17797,-53476 32588,-90978 1387,-3241 4737,-5440 10053,-6597 5316,-1158 10632,-1043 15946,346 5317,1390 9708,3820 13176,7293 3466,3472 4043,8218 1732,14237 -924,2777 -1964,5556 -3120,8334 -1156,2778 -2426,5324 -3813,7639 8320,-10648 17566,-19330 27734,-26044 10169,-6712 21264,-10069 33282,-10069zm177499 0c15717,0 25885,5208 30508,15626 4622,10417 5778,23497 3466,39239 -2311,15742 -6816,32641 -13519,50698 -6703,18057 -13753,34724 -21148,50003 -2312,5556 -6587,9260 -12827,11111 -6241,1853 -12250,2432 -18028,1737 -5778,-694 -10516,-2662 -14214,-5903 -3698,-3241 -4159,-7409 -1386,-12501 2773,-5556 6587,-14006 11441,-25349 4852,-11343 9244,-22686 13173,-34030 3930,-11343 6355,-21413 7280,-30210 925,-8798 -1386,-13196 -6934,-13196 -6008,0 -12710,4052 -20106,12153 -7397,8103 -14908,17941 -22535,29517 -7627,11575 -14792,23612 -21494,36114 -6703,12500 -12365,22917 -16987,31252 -463,462 -695,926 -695,1389 -1386,4166 -4275,7060 -8665,8681 -4392,1619 -8899,1967 -13521,1041 -4622,-925 -8667,-3010 -12133,-6250 -3469,-3241 -4508,-7639 -3121,-13196 2312,-11574 6934,-28937 13867,-52087 6934,-23149 17797,-53476 32588,-90978 1387,-3241 4738,-5440 10053,-6597 5316,-1158 10632,-1043 15948,346 5316,1390 9708,3820 13174,7293 3466,3472 4043,8218 1733,14237 -924,2777 -1965,5556 -3120,8334 -1157,2778 -2427,5324 -3814,7639 8322,-10648 17566,-19330 27734,-26044 10170,-6712 21265,-10069 33282,-10069zm189287 -4168c1386,-3240 4738,-5671 10053,-7291 5317,-1621 10748,-2084 16294,-1389 5547,695 10053,2778 13521,6250 3466,3473 4275,8450 2426,14932 -9707,30557 -19760,61230 -30161,92020 -10400,30789 -21263,58568 -32588,83338 -11324,24771 -23227,45143 -35707,61116 -12481,15974 -25654,24654 -39523,26043 -12942,926 -23574,-1041 -31893,-5902 -8320,-4861 -14562,-11229 -18721,-19100 -1387,-3240 -1618,-6250 -694,-9028 926,-2777 2312,-4861 4160,-6250 1850,-1389 3814,-1852 5894,-1389 2081,463 3583,1852 4507,4167 3236,6020 8552,8797 15947,8334 15254,-926 27850,-11112 37787,-30558 9940,-19446 21149,-47920 33629,-85422 -8320,11574 -17796,21182 -28428,28821 -10631,7640 -22417,11459 -35361,11459 -15715,0 -25886,-5208 -30506,-15626 -4624,-10417 -5780,-23497 -3469,-39239 2312,-15741 6819,-32640 13521,-50697 6703,-18058 13751,-34725 21148,-50004 2311,-5556 6701,-9260 13174,-11111 6471,-1853 12826,-2431 19068,-1737 6239,695 11440,2662 15600,5904 4160,3240 4853,7407 2080,12500 -2774,5555 -6703,14006 -11788,25349 -5084,11344 -9590,22687 -13520,34030 -3929,11343 -6586,21413 -7974,30211 -1387,8796 232,13194 4854,13194 6009,0 12828,-4166 20455,-12500 7625,-8335 15253,-18289 22880,-29863 7626,-11575 14907,-23728 21840,-36461 6935,-12733 12481,-23266 16641,-31599 925,-2316 1734,-4399 2427,-6250 694,-1853 1502,-3936 2427,-6252z"/>
  <g id="_554249240704">
   <path class="fil5" fill="#E31E24" d="M2791654 524007c925,-2778 2658,-4745 5201,-5904 2541,-1157 4968,-1620 7280,-1389 2312,232 4159,1273 5547,3126 1387,1852 1617,4167 693,6945 -925,2777 -3351,9722 -7281,20835 -3928,11111 -9012,22570 -15253,34493 -6240,11806 -13635,22571 -22188,32293 -8551,9608 -17912,14469 -28081,14469 -2312,0 -5430,-463 -9360,-1389 -3929,-926 -7858,-2778 -11787,-5324 -3930,-2547 -7628,-6135 -11094,-10650 -3466,-4513 -5893,-10301 -7280,-17361 -8782,9491 -18258,17015 -28429,22686 -10168,5672 -20798,8566 -31893,8566 -12480,0 -23343,-3821 -32587,-11460 -8183,-6761 -12744,-15787 -13684,-27081 -8003,8594 -17310,16464 -27919,23609 -13405,9028 -28427,13543 -45068,13543 -5084,0 -11094,0 -18026,0 -6935,0 -13869,-116 -20801,-348 -6934,-231 -13521,-579 -19760,-1041 -6242,-463 -10748,-1157 -13521,-2084 -2312,-462 -4508,-2199 -6587,-5209 -2080,-3009 -3698,-6134 -4854,-9375 -1156,-3241 -1965,-6482 -2427,-9723 -303,-2128 -209,-3857 285,-5186 -7043,6981 -14996,13454 -23859,19423 -13405,9028 -28428,13543 -45068,13543 -5084,0 -11094,0 -18027,0 -6934,0 -13868,-116 -20802,-348 -6932,-231 -13519,-579 -19760,-1041 -6240,-463 -10746,-1157 -13519,-2084 -2312,-462 -4508,-2199 -6589,-5209 -2079,-3009 -3698,-6134 -4852,-9375 -1156,-3241 -1965,-6482 -2428,-9723 -461,-3242 0,-5556 1387,-6944 2774,-3242 7165,-7757 13175,-13543 6007,-5788 13057,-12617 21147,-20488 8089,-7871 16755,-16437 26001,-25697 9244,-9259 18719,-18982 28427,-29168 -16179,926 -29006,1505 -38481,1737 -9476,230 -15138,-116 -16989,-1043 -1386,-926 -2541,-3240 -3466,-6828 -924,-3588 -1502,-7756 -1733,-12270 -231,-4514 0,-8681 693,-12617 694,-3819 2196,-6481 4506,-7871 926,-463 4624,-579 11095,-347 6472,232 14330,579 23574,1041 9245,464 19067,1159 29468,2085 10400,925 19761,1851 28080,2778 3237,-1853 7166,-1737 11788,346 4622,2084 8782,5094 12480,9030 3698,3819 6356,7985 7975,12384 1617,4399 1502,7524 -348,9260 -13405,13426 -28427,27665 -45068,42827 -16640,15163 -34436,30210 -53388,44910l25654 0c11094,0 22072,-2779 32934,-8333 7221,-3694 14679,-7815 21309,-12201 7499,-4958 24449,-17445 32877,-10214 2453,2105 5789,7245 -841,15553 -2237,2803 -4414,5793 -6793,8747 1160,-1146 2401,-2353 3717,-3621 6009,-5788 13057,-12617 21147,-20488 8089,-7871 16756,-16437 26001,-25697 9246,-9259 18721,-18982 28428,-29168 -16179,926 -29006,1505 -38481,1737 -9476,230 -15139,-116 -16988,-1043 -1387,-926 -2543,-3240 -3468,-6828 -922,-3588 -1502,-7756 -1732,-12270 -232,-4514 0,-8681 694,-12617 693,-3819 2195,-6481 4506,-7871 925,-463 4622,-579 11094,-347 6471,232 14329,579 23574,1041 9244,464 19067,1159 29468,2085 10400,925 19760,1851 28081,2778 3235,-1853 7164,-1737 11787,346 4622,2084 8782,5094 12480,9030 3698,3819 6355,7985 7974,12384 1618,4399 1502,7524 -347,9260 -13405,13426 -28428,27665 -45067,42827 -16642,15163 -34438,30210 -53390,44910l25654 0c11094,0 22073,-2778 32935,-8333 10863,-5556 20455,-11806 28775,-18752 8319,-6945 15254,-13773 20800,-20487 1529,-1850 2881,-3533 4059,-5049 5045,-9755 11202,-18953 18475,-27592 9938,-11807 21379,-21761 34321,-29863 12943,-8103 26810,-12153 41602,-12153 13405,0 23574,4166 30508,12500l2080 -4167c1848,-3242 5546,-5556 11093,-6945 5547,-1388 10863,-1388 15947,0 5085,1389 9246,3935 12480,7639 3237,3705 3698,8566 1388,14469 -2312,6482 -6357,15510 -12133,26970 -5778,11459 -11095,23150 -15949,34840 -4853,11807 -8089,21877 -9706,30442 -1618,8450 346,12732 5893,12732 5085,0 10400,-3125 15948,-9375 5546,-6251 10746,-13312 15600,-21183 4853,-7871 9014,-15510 12481,-22917 3466,-7409 5662,-12270 6586,-14585zm-149765 61115c6009,0 13635,-4283 22881,-12849 9244,-8565 17796,-18055 25654,-28474 7858,-10416 13752,-20024 17680,-28820 3930,-8797 3814,-13196 -346,-13196 -7858,0 -16989,3952 -27158,12747 -10167,8794 -19635,19287 -27490,29703 -7857,10416 -12724,19476 -15727,28040 -3004,8566 -1503,12849 4506,12849z"/>
   <path class="fil5" fill="#E31E24" d="M2240436 621236c-1387,4167 -4508,7060 -9360,8681 -4854,1620 -9823,1968 -14908,1041 -5084,-925 -9476,-3009 -13174,-6250 -3698,-3240 -4854,-7639 -3467,-13196 2311,-11574 6933,-28936 13868,-52087 6933,-23149 17796,-53475 32588,-90977 1386,-3242 4969,-5441 10746,-6598 5778,-1157 11556,-1042 17333,346 5779,1391 10517,3821 14215,7293 3697,3472 4390,8219 2080,14237 -4161,10186 -8204,19678 -12133,28474 -3930,8797 -7859,18289 -11788,28475 -3929,10185 -7973,21644 -12134,34378 -4160,12732 -8783,28126 -13866,46183z"/>
   <path class="fil5" fill="#E31E24" d="M2291745 433028c-5086,0 -9362,-1736 -12828,-5208 -3466,-3473 -5200,-7756 -5200,-12848 0,-5093 1734,-9260 5200,-12501 3466,-3241 7742,-4862 12828,-4862 5084,0 9244,1621 12479,4862 3236,3241 4853,7408 4853,12501 0,5092 -1617,9375 -4853,12848 -3235,3472 -7395,5208 -12479,5208z"/>
   <path class="fil5" fill="#E31E24" d="M2162779 350384c17565,0 31779,5440 42641,16320 10864,10881 18029,24191 21495,39933 3467,15742 3235,32757 -693,51046 -3929,18288 -12249,34840 -24961,49656 -12713,14816 -29815,26506 -51308,35072 -21494,8565 -47728,11227 -78697,7986 -7397,19446 -13059,36577 -16987,51393 -3929,14815 -4276,24307 -1040,28474 1386,1852 1040,3820 -1040,5903 -2080,2084 -5085,3820 -9015,5209 -3927,1389 -8203,2314 -12826,2778 -4622,463 -8782,-232 -12480,-2083 -13869,-6482 -14562,-33567 -2080,-81257 12480,-47688 41139,-116443 85976,-206263 1386,-2316 3814,-4167 7280,-5556 3466,-1389 7511,-2199 12134,-2431 4621,-231 9244,116 13866,1042 4624,926 8551,2315 11788,4167 2312,-463 4853,-811 7627,-1043 2773,-230 5546,-346 8320,-346zm-74882 159732c11094,-462 21956,-2545 32588,-6250 10631,-3704 19992,-8797 28082,-15278 8088,-6482 14559,-14469 19412,-23960 4855,-9492 7280,-20257 7280,-32294 0,-13890 -3698,-24076 -11093,-30558 -7396,-6482 -15486,-8797 -24268,-6944 -6471,13889 -14444,31135 -23920,51739 -9476,20604 -18837,41785 -28081,63545z"/>
  </g>
 </g>
</svg>
